<mxfile host="app.diagrams.net" agent="Mozilla/5.0 (Windows NT 10.0; Win64; x64) AppleWebKit/537.36 (KHTML, like Gecko) Chrome/131.0.0.0 Safari/537.36" version="24.9.0">
  <diagram name="Page-1" id="24Fk2SP2DoDN588j-z96">
    <mxGraphModel dx="1103" dy="446" grid="1" gridSize="10" guides="1" tooltips="1" connect="1" arrows="1" fold="1" page="1" pageScale="1" pageWidth="850" pageHeight="1100" math="0" shadow="0">
      <root>
        <mxCell id="0" />
        <mxCell id="1" parent="0" />
        <mxCell id="CfJclwMIV5jUgnvCJRgR-1" value="Input&amp;nbsp;&lt;div&gt;Image&lt;/div&gt;" style="rounded=0;whiteSpace=wrap;html=1;" vertex="1" parent="1">
          <mxGeometry x="20" y="220" width="50" height="30" as="geometry" />
        </mxCell>
        <mxCell id="CfJclwMIV5jUgnvCJRgR-2" value="Landmark Stage&amp;nbsp;&lt;span style=&quot;background-color: initial;&quot;&gt;1&lt;/span&gt;" style="rounded=0;whiteSpace=wrap;html=1;rotation=-90;" vertex="1" parent="1">
          <mxGeometry x="80" y="140" width="80" height="40" as="geometry" />
        </mxCell>
        <mxCell id="CfJclwMIV5jUgnvCJRgR-3" value="Image&amp;nbsp;&lt;div&gt;Stage 1&lt;/div&gt;" style="rounded=0;whiteSpace=wrap;html=1;rotation=-90;" vertex="1" parent="1">
          <mxGeometry x="80" y="300" width="80" height="40" as="geometry" />
        </mxCell>
        <mxCell id="CfJclwMIV5jUgnvCJRgR-40" style="edgeStyle=orthogonalEdgeStyle;rounded=0;orthogonalLoop=1;jettySize=auto;html=1;exitX=1;exitY=0.5;exitDx=0;exitDy=0;entryX=1;entryY=0.5;entryDx=0;entryDy=0;" edge="1" parent="1" source="CfJclwMIV5jUgnvCJRgR-4" target="CfJclwMIV5jUgnvCJRgR-6">
          <mxGeometry relative="1" as="geometry" />
        </mxCell>
        <mxCell id="CfJclwMIV5jUgnvCJRgR-4" value="CBAM" style="rounded=0;whiteSpace=wrap;html=1;" vertex="1" parent="1">
          <mxGeometry x="160" y="120" width="40" height="60" as="geometry" />
        </mxCell>
        <mxCell id="CfJclwMIV5jUgnvCJRgR-43" style="edgeStyle=orthogonalEdgeStyle;rounded=0;orthogonalLoop=1;jettySize=auto;html=1;exitX=1;exitY=0.5;exitDx=0;exitDy=0;entryX=0;entryY=0.5;entryDx=0;entryDy=0;" edge="1" parent="1" source="CfJclwMIV5jUgnvCJRgR-5" target="CfJclwMIV5jUgnvCJRgR-6">
          <mxGeometry relative="1" as="geometry" />
        </mxCell>
        <mxCell id="CfJclwMIV5jUgnvCJRgR-5" value="CBAM" style="rounded=0;whiteSpace=wrap;html=1;" vertex="1" parent="1">
          <mxGeometry x="160" y="300" width="40" height="60" as="geometry" />
        </mxCell>
        <mxCell id="CfJclwMIV5jUgnvCJRgR-46" style="edgeStyle=orthogonalEdgeStyle;rounded=0;orthogonalLoop=1;jettySize=auto;html=1;exitX=0.5;exitY=1;exitDx=0;exitDy=0;entryX=0;entryY=0.5;entryDx=0;entryDy=0;" edge="1" parent="1" source="CfJclwMIV5jUgnvCJRgR-6" target="CfJclwMIV5jUgnvCJRgR-7">
          <mxGeometry relative="1" as="geometry" />
        </mxCell>
        <mxCell id="CfJclwMIV5jUgnvCJRgR-6" value="Window Cross&lt;div&gt;Attention&lt;/div&gt;" style="rounded=0;whiteSpace=wrap;html=1;rotation=-90;" vertex="1" parent="1">
          <mxGeometry x="190" y="218.75" width="125" height="42.5" as="geometry" />
        </mxCell>
        <mxCell id="CfJclwMIV5jUgnvCJRgR-7" value="Landmark Stage 2" style="rounded=0;whiteSpace=wrap;html=1;rotation=-90;" vertex="1" parent="1">
          <mxGeometry x="283.75" y="140" width="80" height="40" as="geometry" />
        </mxCell>
        <mxCell id="CfJclwMIV5jUgnvCJRgR-8" value="Image&amp;nbsp;&lt;div&gt;Stage 2&lt;/div&gt;" style="rounded=0;whiteSpace=wrap;html=1;rotation=-90;" vertex="1" parent="1">
          <mxGeometry x="282" y="300" width="80" height="40" as="geometry" />
        </mxCell>
        <mxCell id="CfJclwMIV5jUgnvCJRgR-57" style="edgeStyle=orthogonalEdgeStyle;rounded=0;orthogonalLoop=1;jettySize=auto;html=1;entryX=1;entryY=0.5;entryDx=0;entryDy=0;" edge="1" parent="1">
          <mxGeometry relative="1" as="geometry">
            <mxPoint x="401" y="150" as="sourcePoint" />
            <mxPoint x="453.5" y="177.5" as="targetPoint" />
          </mxGeometry>
        </mxCell>
        <mxCell id="CfJclwMIV5jUgnvCJRgR-9" value="CBAM" style="rounded=0;whiteSpace=wrap;html=1;" vertex="1" parent="1">
          <mxGeometry x="360" y="120" width="40" height="60" as="geometry" />
        </mxCell>
        <mxCell id="CfJclwMIV5jUgnvCJRgR-58" style="edgeStyle=orthogonalEdgeStyle;rounded=0;orthogonalLoop=1;jettySize=auto;html=1;entryX=0;entryY=0.5;entryDx=0;entryDy=0;" edge="1" parent="1">
          <mxGeometry relative="1" as="geometry">
            <mxPoint x="401" y="330" as="sourcePoint" />
            <mxPoint x="453.5" y="302.5" as="targetPoint" />
          </mxGeometry>
        </mxCell>
        <mxCell id="CfJclwMIV5jUgnvCJRgR-10" value="CBAM" style="rounded=0;whiteSpace=wrap;html=1;" vertex="1" parent="1">
          <mxGeometry x="360" y="300" width="40" height="60" as="geometry" />
        </mxCell>
        <mxCell id="CfJclwMIV5jUgnvCJRgR-11" value="Window Cross&lt;div&gt;Attention&lt;/div&gt;" style="rounded=0;whiteSpace=wrap;html=1;rotation=-90;" vertex="1" parent="1">
          <mxGeometry x="390" y="218.75" width="125" height="42.5" as="geometry" />
        </mxCell>
        <mxCell id="CfJclwMIV5jUgnvCJRgR-60" style="edgeStyle=orthogonalEdgeStyle;rounded=0;orthogonalLoop=1;jettySize=auto;html=1;exitX=0.5;exitY=1;exitDx=0;exitDy=0;" edge="1" parent="1">
          <mxGeometry relative="1" as="geometry">
            <mxPoint x="560" y="150" as="targetPoint" />
            <mxPoint x="541" y="150" as="sourcePoint" />
          </mxGeometry>
        </mxCell>
        <mxCell id="CfJclwMIV5jUgnvCJRgR-12" value="Landmark Stage 3" style="rounded=0;whiteSpace=wrap;html=1;rotation=-90;" vertex="1" parent="1">
          <mxGeometry x="480" y="140" width="80" height="40" as="geometry" />
        </mxCell>
        <mxCell id="CfJclwMIV5jUgnvCJRgR-13" value="Image&amp;nbsp;&lt;div&gt;Stage 3&lt;/div&gt;" style="rounded=0;whiteSpace=wrap;html=1;rotation=-90;" vertex="1" parent="1">
          <mxGeometry x="480.75" y="300" width="80" height="40" as="geometry" />
        </mxCell>
        <mxCell id="CfJclwMIV5jUgnvCJRgR-63" style="edgeStyle=orthogonalEdgeStyle;rounded=0;orthogonalLoop=1;jettySize=auto;html=1;entryX=1;entryY=0.5;entryDx=0;entryDy=0;" edge="1" parent="1">
          <mxGeometry relative="1" as="geometry">
            <mxPoint x="597" y="150" as="sourcePoint" />
            <mxPoint x="639.5" y="175" as="targetPoint" />
          </mxGeometry>
        </mxCell>
        <mxCell id="CfJclwMIV5jUgnvCJRgR-14" value="CBAM" style="rounded=0;whiteSpace=wrap;html=1;" vertex="1" parent="1">
          <mxGeometry x="560" y="120" width="40" height="60" as="geometry" />
        </mxCell>
        <mxCell id="CfJclwMIV5jUgnvCJRgR-62" style="edgeStyle=orthogonalEdgeStyle;rounded=0;orthogonalLoop=1;jettySize=auto;html=1;entryX=0;entryY=0.75;entryDx=0;entryDy=0;" edge="1" parent="1">
          <mxGeometry relative="1" as="geometry">
            <mxPoint x="586" y="330" as="sourcePoint" />
            <mxPoint x="639.125" y="300" as="targetPoint" />
          </mxGeometry>
        </mxCell>
        <mxCell id="CfJclwMIV5jUgnvCJRgR-15" value="CBAM" style="rounded=0;whiteSpace=wrap;html=1;" vertex="1" parent="1">
          <mxGeometry x="560" y="300" width="40" height="60" as="geometry" />
        </mxCell>
        <mxCell id="CfJclwMIV5jUgnvCJRgR-16" value="Window Cross&lt;div&gt;Attention&lt;/div&gt;" style="rounded=0;whiteSpace=wrap;html=1;rotation=-90;" vertex="1" parent="1">
          <mxGeometry x="580" y="216.25" width="125" height="42.5" as="geometry" />
        </mxCell>
        <mxCell id="CfJclwMIV5jUgnvCJRgR-17" value="CBAM" style="rounded=0;whiteSpace=wrap;html=1;rotation=-90;" vertex="1" parent="1">
          <mxGeometry x="680" y="214.69" width="60" height="41.25" as="geometry" />
        </mxCell>
        <mxCell id="CfJclwMIV5jUgnvCJRgR-18" value="VIT Model" style="rounded=0;whiteSpace=wrap;html=1;rotation=-90;" vertex="1" parent="1">
          <mxGeometry x="735" y="217.19" width="75.63" height="36.87" as="geometry" />
        </mxCell>
        <mxCell id="CfJclwMIV5jUgnvCJRgR-22" value="" style="endArrow=classic;html=1;rounded=0;exitX=1;exitY=0;exitDx=0;exitDy=0;entryX=0;entryY=0;entryDx=0;entryDy=0;" edge="1" parent="1" source="CfJclwMIV5jUgnvCJRgR-1" target="CfJclwMIV5jUgnvCJRgR-2">
          <mxGeometry width="50" height="50" relative="1" as="geometry">
            <mxPoint x="400" y="220" as="sourcePoint" />
            <mxPoint x="450" y="170" as="targetPoint" />
            <Array as="points" />
          </mxGeometry>
        </mxCell>
        <mxCell id="CfJclwMIV5jUgnvCJRgR-23" value="" style="endArrow=classic;html=1;rounded=0;exitX=1;exitY=1;exitDx=0;exitDy=0;entryX=1;entryY=0;entryDx=0;entryDy=0;" edge="1" parent="1" source="CfJclwMIV5jUgnvCJRgR-1" target="CfJclwMIV5jUgnvCJRgR-3">
          <mxGeometry width="50" height="50" relative="1" as="geometry">
            <mxPoint x="400" y="220" as="sourcePoint" />
            <mxPoint x="450" y="170" as="targetPoint" />
            <Array as="points">
              <mxPoint x="80" y="260" />
            </Array>
          </mxGeometry>
        </mxCell>
        <mxCell id="CfJclwMIV5jUgnvCJRgR-29" value="" style="endArrow=classic;html=1;rounded=0;exitX=0.5;exitY=1;exitDx=0;exitDy=0;" edge="1" parent="1">
          <mxGeometry width="50" height="50" relative="1" as="geometry">
            <mxPoint x="140" y="150" as="sourcePoint" />
            <mxPoint x="160" y="150" as="targetPoint" />
          </mxGeometry>
        </mxCell>
        <mxCell id="CfJclwMIV5jUgnvCJRgR-37" value="" style="endArrow=classic;html=1;rounded=0;exitX=0.5;exitY=1;exitDx=0;exitDy=0;" edge="1" parent="1">
          <mxGeometry width="50" height="50" relative="1" as="geometry">
            <mxPoint x="140" y="329" as="sourcePoint" />
            <mxPoint x="160" y="329" as="targetPoint" />
          </mxGeometry>
        </mxCell>
        <mxCell id="CfJclwMIV5jUgnvCJRgR-49" value="" style="endArrow=classic;html=1;rounded=0;exitX=0.5;exitY=1;exitDx=0;exitDy=0;" edge="1" parent="1">
          <mxGeometry width="50" height="50" relative="1" as="geometry">
            <mxPoint x="343.75" y="150" as="sourcePoint" />
            <mxPoint x="360" y="150" as="targetPoint" />
            <Array as="points">
              <mxPoint x="350" y="150" />
            </Array>
          </mxGeometry>
        </mxCell>
        <mxCell id="CfJclwMIV5jUgnvCJRgR-50" value="" style="endArrow=classic;html=1;rounded=0;exitX=0.5;exitY=1;exitDx=0;exitDy=0;" edge="1" parent="1">
          <mxGeometry width="50" height="50" relative="1" as="geometry">
            <mxPoint x="343" y="329" as="sourcePoint" />
            <mxPoint x="359" y="329" as="targetPoint" />
            <Array as="points">
              <mxPoint x="349" y="329" />
            </Array>
          </mxGeometry>
        </mxCell>
        <mxCell id="CfJclwMIV5jUgnvCJRgR-54" value="" style="endArrow=classic;html=1;rounded=0;entryX=1;entryY=0;entryDx=0;entryDy=0;" edge="1" parent="1">
          <mxGeometry width="50" height="50" relative="1" as="geometry">
            <mxPoint x="324" y="240" as="sourcePoint" />
            <mxPoint x="324" y="280" as="targetPoint" />
          </mxGeometry>
        </mxCell>
        <mxCell id="CfJclwMIV5jUgnvCJRgR-55" style="edgeStyle=orthogonalEdgeStyle;rounded=0;orthogonalLoop=1;jettySize=auto;html=1;exitX=0.5;exitY=1;exitDx=0;exitDy=0;entryX=0;entryY=0.5;entryDx=0;entryDy=0;" edge="1" parent="1">
          <mxGeometry relative="1" as="geometry">
            <mxPoint x="474" y="240" as="sourcePoint" />
            <mxPoint x="524" y="200" as="targetPoint" />
          </mxGeometry>
        </mxCell>
        <mxCell id="CfJclwMIV5jUgnvCJRgR-61" style="edgeStyle=orthogonalEdgeStyle;rounded=0;orthogonalLoop=1;jettySize=auto;html=1;exitX=0.5;exitY=1;exitDx=0;exitDy=0;" edge="1" parent="1">
          <mxGeometry relative="1" as="geometry">
            <mxPoint x="560" y="329" as="targetPoint" />
            <mxPoint x="541" y="329" as="sourcePoint" />
          </mxGeometry>
        </mxCell>
        <mxCell id="CfJclwMIV5jUgnvCJRgR-68" value="" style="endArrow=classic;html=1;rounded=0;exitX=0.5;exitY=1;exitDx=0;exitDy=0;" edge="1" parent="1">
          <mxGeometry width="50" height="50" relative="1" as="geometry">
            <mxPoint x="663.75" y="238.5" as="sourcePoint" />
            <mxPoint x="689" y="239" as="targetPoint" />
          </mxGeometry>
        </mxCell>
        <mxCell id="CfJclwMIV5jUgnvCJRgR-69" value="" style="endArrow=classic;html=1;rounded=0;exitX=0.5;exitY=1;exitDx=0;exitDy=0;" edge="1" parent="1">
          <mxGeometry width="50" height="50" relative="1" as="geometry">
            <mxPoint x="729" y="240" as="sourcePoint" />
            <mxPoint x="754" y="240" as="targetPoint" />
          </mxGeometry>
        </mxCell>
        <mxCell id="CfJclwMIV5jUgnvCJRgR-70" value="" style="endArrow=classic;html=1;rounded=0;exitX=0.5;exitY=1;exitDx=0;exitDy=0;" edge="1" parent="1" source="CfJclwMIV5jUgnvCJRgR-19">
          <mxGeometry width="50" height="50" relative="1" as="geometry">
            <mxPoint x="792" y="239" as="sourcePoint" />
            <mxPoint x="817" y="239" as="targetPoint" />
          </mxGeometry>
        </mxCell>
        <mxCell id="CfJclwMIV5jUgnvCJRgR-71" value="" style="endArrow=classic;html=1;rounded=0;" edge="1" parent="1">
          <mxGeometry width="50" height="50" relative="1" as="geometry">
            <mxPoint x="525" y="238" as="sourcePoint" />
            <mxPoint x="525" y="278" as="targetPoint" />
          </mxGeometry>
        </mxCell>
        <mxCell id="CfJclwMIV5jUgnvCJRgR-72" value="" style="endArrow=classic;html=1;rounded=0;exitX=0.5;exitY=1;exitDx=0;exitDy=0;" edge="1" parent="1" target="CfJclwMIV5jUgnvCJRgR-19">
          <mxGeometry width="50" height="50" relative="1" as="geometry">
            <mxPoint x="792" y="239" as="sourcePoint" />
            <mxPoint x="817" y="239" as="targetPoint" />
          </mxGeometry>
        </mxCell>
        <mxCell id="CfJclwMIV5jUgnvCJRgR-19" value="Head" style="rounded=0;whiteSpace=wrap;html=1;rotation=-90;" vertex="1" parent="1">
          <mxGeometry x="790" y="222.81" width="69.37" height="31.25" as="geometry" />
        </mxCell>
      </root>
    </mxGraphModel>
  </diagram>
</mxfile>
